<svg xmlns="http://www.w3.org/2000/svg" viewBox="0 0 400 300" width="400" height="300">
  <!-- Background -->
  <rect width="400" height="300" fill="#f8f9fa" rx="16"/>

  <!-- Shadow -->
  <ellipse cx="200" cy="252" rx="95" ry="10" fill="#00000018"/>

  <!-- Main body (slightly larger = Custom) -->
  <rect x="70" y="95" width="260" height="145" rx="14" fill="#1e293b" stroke="#334155" stroke-width="2"/>
  <!-- Top face -->
  <path d="M70 95 L112 60 L372 60 L330 95 Z" fill="#334155" stroke="#475569" stroke-width="1.5"/>
  <!-- Right face -->
  <path d="M330 95 L372 60 L372 205 L330 240 Z" fill="#0f172a" stroke="#1e293b" stroke-width="1.5"/>

  <!-- Cable slots - 8 slots -->
  <rect x="125" y="68" width="14" height="14" rx="7" fill="#6366f1"/>
  <rect x="148" y="68" width="14" height="14" rx="7" fill="#6366f1"/>
  <rect x="171" y="68" width="14" height="14" rx="7" fill="#6366f1"/>
  <rect x="194" y="68" width="14" height="14" rx="7" fill="#6366f1"/>
  <rect x="217" y="68" width="14" height="14" rx="7" fill="#6366f1"/>
  <rect x="240" y="68" width="14" height="14" rx="7" fill="#6366f1"/>
  <rect x="263" y="68" width="14" height="14" rx="7" fill="#6366f1"/>
  <rect x="286" y="68" width="14" height="14" rx="7" fill="#6366f1"/>

  <!-- Cables -->
  <path d="M132 68 Q130 38 125 25"  stroke="#818cf8" stroke-width="2.5" fill="none" stroke-linecap="round"/>
  <path d="M155 68 Q155 40 152 22"  stroke="#a5b4fc" stroke-width="2.5" fill="none" stroke-linecap="round"/>
  <path d="M178 68 Q180 38 180 18"  stroke="#c7d2fe" stroke-width="2.5" fill="none" stroke-linecap="round"/>
  <path d="M201 68 Q201 36 200 14"  stroke="#e0e7ff" stroke-width="2.5" fill="none" stroke-linecap="round"/>
  <path d="M224 68 Q224 38 225 18"  stroke="#c7d2fe" stroke-width="2.5" fill="none" stroke-linecap="round"/>
  <path d="M247 68 Q249 40 252 22"  stroke="#a5b4fc" stroke-width="2.5" fill="none" stroke-linecap="round"/>
  <path d="M270 68 Q272 38 278 25"  stroke="#818cf8" stroke-width="2.5" fill="none" stroke-linecap="round"/>
  <path d="M293 68 Q296 38 302 26"  stroke="#6366f1" stroke-width="2.5" fill="none" stroke-linecap="round"/>

  <!-- Name engraved on front -->
  <text x="200" y="170" text-anchor="middle" font-family="system-ui, sans-serif" font-size="20" font-weight="700" fill="#e2e8f0">UnTangle</text>
  <text x="200" y="193" text-anchor="middle" font-family="system-ui, sans-serif" font-size="11" fill="#6366f1" letter-spacing="4">CUSTOM</text>

  <!-- Personalization badge -->
  <rect x="138" y="208" width="124" height="22" rx="11" fill="#6366f1" opacity="0.15"/>
  <text x="200" y="223" text-anchor="middle" font-family="system-ui, sans-serif" font-size="11" fill="#818cf8">Dein Name hier</text>

  <text x="200" y="272" text-anchor="middle" font-family="system-ui, sans-serif" font-size="11" fill="#94a3b8">Personalisiert · 3D-gedruckt · PLA</text>
</svg>
